<?xml version="1.0" encoding="UTF-8"?>
<!DOCTYPE svg PUBLIC "-//W3C//DTD SVG 1.1//EN" "http://www.w3.org/Graphics/SVG/1.1/DTD/svg11.dtd">
<svg xmlns="http://www.w3.org/2000/svg" version="1.1" width="265px" height="345px" style="shape-rendering:geometricPrecision; text-rendering:geometricPrecision; image-rendering:optimizeQuality; fill-rule:evenodd; clip-rule:evenodd" xmlns:xlink="http://www.w3.org/1999/xlink">
<g><path style="opacity:0.982" fill="#e46740" d="M 167.5,52.5 C 144.5,52.5 121.5,52.5 98.5,52.5C 98.7393,40.6201 101.906,29.6201 108,19.5C 118.392,8.59401 130.892,5.42735 145.5,10C 155.992,14.8413 162.492,23.008 165,34.5C 166.594,40.3988 167.428,46.3988 167.5,52.5 Z"/></g>
<g><path style="opacity:0.999" fill="#838895" d="M 98.5,52.5 C 121.5,52.5 144.5,52.5 167.5,52.5C 186.503,52.3334 205.503,52.5001 224.5,53C 234.333,56.1667 240.833,62.6667 244,72.5C 244.5,87.1629 244.667,101.83 244.5,116.5C 244.5,135.5 244.5,154.5 244.5,173.5C 244.667,189.17 244.5,204.837 244,220.5C 242.738,225.374 240.238,229.374 236.5,232.5C 222.702,225.216 208.035,220.716 192.5,219C 152.167,218.333 111.833,218.333 71.5,219C 65.098,220.011 58.7646,221.345 52.5,223C 45.4681,225.853 38.4681,228.686 31.5,231.5C 26.8645,226.886 24.3645,221.219 24,214.5C 23.3333,169.167 23.3333,123.833 24,78.5C 25.2955,65.5387 32.1288,57.0387 44.5,53C 62.4969,52.5001 80.4969,52.3334 98.5,52.5 Z"/></g>
<g><path style="opacity:1" fill="#1f262a" d="M 69.5,96.5 C 112.894,96.016 156.227,96.516 199.5,98C 201.917,99.6626 203.75,101.829 205,104.5C 205.978,126.589 205.644,148.589 204,170.5C 202.127,172.709 199.96,174.542 197.5,176C 154.083,176.989 110.75,176.656 67.5,175C 65.2911,173.127 63.4578,170.96 62,168.5C 61.3333,147.167 61.3333,125.833 62,104.5C 63.6904,100.979 66.1904,98.3124 69.5,96.5 Z"/></g>
<g><path style="opacity:0.974" fill="#1e2629" d="M 244.5,116.5 C 248.167,116.5 251.833,116.5 255.5,116.5C 255.5,120.5 255.5,124.5 255.5,128.5C 258.5,128.5 261.5,128.5 264.5,128.5C 264.5,139.5 264.5,150.5 264.5,161.5C 261.5,161.5 258.5,161.5 255.5,161.5C 255.5,165.5 255.5,169.5 255.5,173.5C 251.833,173.5 248.167,173.5 244.5,173.5C 244.5,154.5 244.5,135.5 244.5,116.5 Z"/></g>
<g><path style="opacity:1" fill="#f9f9f9" d="M 91.5,118.5 C 103.431,116.426 112.598,120.426 119,130.5C 119.873,141.463 114.706,146.796 103.5,146.5C 93.7317,146.545 86.8983,142.212 83,133.5C 81.7065,126.081 84.5398,121.081 91.5,118.5 Z"/></g>
<g><path style="opacity:1" fill="#f9f9f9" d="M 157.5,118.5 C 165.741,117.002 172.907,119.002 179,124.5C 181.135,132.414 178.635,138.58 171.5,143C 162.789,147.773 154.289,147.606 146,142.5C 141.796,134.975 142.963,128.475 149.5,123C 152.099,121.205 154.766,119.705 157.5,118.5 Z"/></g>
<g><path style="opacity:0.997" fill="#1f262a" d="M 236.5,232.5 C 249.536,241.203 258.87,252.87 264.5,267.5C 264.5,276.833 264.5,286.167 264.5,295.5C 252.941,321.524 232.941,337.024 204.5,342C 159.528,343.63 114.528,343.963 69.5,343C 44.0733,340.38 23.9067,328.88 9,308.5C -2.63463,286.167 -0.634634,265.167 15,245.5C 20.3976,240.593 25.8976,235.927 31.5,231.5C 38.4681,228.686 45.4681,225.853 52.5,223C 58.7646,221.345 65.098,220.011 71.5,219C 111.833,218.333 152.167,218.333 192.5,219C 208.035,220.716 222.702,225.216 236.5,232.5 Z"/></g>
<g><path style="opacity:1" fill="#fcfcfc" d="M 42.5,258.5 C 65.1926,257.686 74.3593,268.353 70,290.5C 63.0487,302.459 52.882,306.292 39.5,302C 29.004,295.834 24.8373,286.667 27,274.5C 30.0202,266.981 35.1868,261.648 42.5,258.5 Z"/></g>
<g><path style="opacity:1" fill="#fcfcfc" d="M 125.5,258.5 C 139.075,256.701 148.575,262.035 154,274.5C 155.694,295.805 145.86,305.305 124.5,303C 109.825,295.808 105.658,284.641 112,269.5C 115.336,264.269 119.836,260.602 125.5,258.5 Z"/></g>
<g><path style="opacity:1" fill="#fbfbfb" d="M 212.5,258.5 C 233.346,257.178 242.846,266.845 241,287.5C 235.348,300.411 225.515,305.578 211.5,303C 197.373,295.576 193.207,284.409 199,269.5C 202.336,264.269 206.836,260.602 212.5,258.5 Z"/></g>
</svg>
